/* XPM */
static const char * backupvp_xpm[] = {
"32 32 9 1",
" 	c None",
".	c #B459E8",
"+	c #59B1E8",
"@	c #0000FF",
"#	c #800000",
"$	c #FFFF00",
"%	c #FF0000",
"&	c #FF8040",
"*	c #234AC8",
"................................",
"................................",
"..++++++++++++++++++++++++++++..",
"..++++++++++++++++++++++++++++..",
"..++@+@+@+@+@+@+@+@+@+@+@+@+++..",
"..++++++++++++++++++++++++++++..",
"..++#+$+$+$+@+@+#+$+@+#+$+@+++..",
"..++++++++++++++++++++++++++++..",
"..++#+$+%+%+$+@+#+$+@+#+$+@+++..",
"..++++++++++++++++++++++++++++..",
"..++#+$+@+#+$+@+#+$+#+$+@+@+++..",
"..++++++++++++++++++++++++++++..",
"..++#+$+$+$+@+@+#+$+$+@+@+@+++..",
"..++++++++++++++++++++++++++++..",
"..++#+$+$+$+@+@+#+$+$+@+@+@+++..",
"..++++++++++++++++++++++++++++..",
"..++#+$+%+%+$+@+#+$+%+$+@+@+++..",
"..++++++++++++++++++++++++++++..",
"..++#+$+@+#+$+@+#+$+@+#+$+@+++..",
"..++++++++++++++++++++++++++++..",
"..++#+$+$+$+@+&+&+$+@+#+$+@+++..",
"..++++++++++++++++++++++%+++++..",
"..++@+%+%+%+@+&+&+%+@+@+@+@+++..",
"..++++++++++++++++++++++++++++..",
"..+++++++****+**+***++++++++++..",
"..++++++++**++**+*+*++++++++++..",
"..+++++++++**+*++***++++++++++..",
"..+++++++++**+*++*++++++++++++..",
"..++++++++++**+++*++++++++++++..",
"..++++++++++++++++++++++++++++..",
"................................",
"................................"};
