/* XPM */
static const char * earth4_xpm[] = {
"24 24 328 2",
"  	c None",
". 	c #000000",
"+ 	c #000002",
"@ 	c #000001",
"# 	c #010001",
"$ 	c #2AFF00",
"% 	c #FFFFFF",
"& 	c #000200",
"* 	c #000202",
"= 	c #010207",
"- 	c #0A0B16",
"; 	c #161722",
"> 	c #1B1C27",
", 	c #191A25",
"' 	c #11131E",
") 	c #080911",
"! 	c #1B8806",
"~ 	c #000101",
"{ 	c #030709",
"] 	c #191D28",
"^ 	c #424558",
"/ 	c #585A70",
"( 	c #5C5E73",
"_ 	c #57596E",
": 	c #4E5065",
"< 	c #42455A",
"[ 	c #33364C",
"} 	c #010000",
"| 	c #000203",
"1 	c #101424",
"2 	c #414D65",
"3 	c #636B83",
"4 	c #71778E",
"5 	c #7A7F95",
"6 	c #7F8499",
"7 	c #7F8396",
"8 	c #75788A",
"9 	c #52596D",
"0 	c #4B5165",
"a 	c #000103",
"b 	c #212339",
"c 	c #60658B",
"d 	c #7984A7",
"e 	c #8790A5",
"f 	c #89919C",
"g 	c #838997",
"h 	c #6A707D",
"i 	c #797E88",
"j 	c #7F838C",
"k 	c #686F7F",
"l 	c #444A61",
"m 	c #010102",
"n 	c #1C1F32",
"o 	c #70759B",
"p 	c #7A82A9",
"q 	c #747F9E",
"r 	c #828AA1",
"s 	c #9BA2AF",
"t 	c #858D93",
"u 	c #81878E",
"v 	c #7B8087",
"w 	c #5C606D",
"x 	c #4E546F",
"y 	c #404663",
"z 	c #0A0A16",
"A 	c #000102",
"B 	c #030001",
"C 	c #060711",
"D 	c #414E78",
"E 	c #6975A6",
"F 	c #646F9A",
"G 	c #8388A7",
"H 	c #969BB9",
"I 	c #9096AB",
"J 	c #828B8D",
"K 	c #A5AAAA",
"L 	c #ABAEAB",
"M 	c #646B64",
"N 	c #3D4749",
"O 	c #434B5F",
"P 	c #161832",
"Q 	c #020409",
"R 	c #020103",
"S 	c #1F2448",
"T 	c #545F97",
"U 	c #313B78",
"V 	c #454F84",
"W 	c #8A8FAD",
"X 	c #73779B",
"Y 	c #7F839F",
"Z 	c #8D9292",
"` 	c #9D9F97",
" .	c #6E7062",
"..	c #5D6554",
"+.	c #4E5A4C",
"@.	c #657070",
"#.	c #11122D",
"$.	c #0B0D1A",
"%.	c #000004",
"&.	c #03040D",
"*.	c #323B76",
"=.	c #3A4485",
"-.	c #3C457E",
";.	c #8992B7",
">.	c #888CAC",
",.	c #A3A8C1",
"'.	c #B5BBC9",
").	c #A7A9A3",
"!.	c #757361",
"~.	c #636549",
"{.	c #54603C",
"].	c #4C5B43",
"^.	c #7C8785",
"/.	c #121531",
"(.	c #0F1226",
"_.	c #020309",
":.	c #10142B",
"<.	c #3E498B",
"[.	c #555F9A",
"}.	c #5B5F94",
"|.	c #B2B4CD",
"1.	c #9296AF",
"2.	c #9498B2",
"3.	c #515461",
"4.	c #767155",
"5.	c #756B4B",
"6.	c #716D4E",
"7.	c #4F5831",
"8.	c #3F512C",
"9.	c #58654F",
"0.	c #101636",
"a.	c #0E142B",
"b.	c #05090E",
"c.	c #000100",
"d.	c #1E2243",
"e.	c #4B5698",
"f.	c #535D97",
"g.	c #7277A2",
"h.	c #A4A7BF",
"i.	c #A4A8BF",
"j.	c #8D91AD",
"k.	c #646374",
"l.	c #8B7C63",
"m.	c #867656",
"n.	c #746849",
"o.	c #67643D",
"p.	c #5C6842",
"q.	c #949E8B",
"r.	c #151B3C",
"s.	c #111632",
"t.	c #0A0D16",
"u.	c #272D53",
"v.	c #394588",
"w.	c #454F88",
"x.	c #7980A9",
"y.	c #A4A8C4",
"z.	c #9598B3",
"A.	c #989BB2",
"B.	c #ADADC1",
"C.	c #C5BFC3",
"D.	c #C5BCA9",
"E.	c #A08F74",
"F.	c #827956",
"G.	c #717962",
"H.	c #7D8A83",
"I.	c #181D41",
"J.	c #141938",
"K.	c #0B0E1A",
"L.	c #010202",
"M.	c #333961",
"N.	c #3D4893",
"O.	c #41498E",
"P.	c #454C87",
"Q.	c #7C82A5",
"R.	c #B7BCD1",
"S.	c #9FA0B7",
"T.	c #A8A5BA",
"U.	c #9E9DA4",
"V.	c #7B7D6C",
"W.	c #80785A",
"X.	c #847D57",
"Y.	c #393A42",
"Z.	c #0E1334",
"`.	c #1E2346",
" +	c #141939",
".+	c #0F121F",
"++	c #010100",
"@+	c #2C3051",
"#+	c #6871B2",
"$+	c #454D8F",
"%+	c #363C7E",
"&+	c #65699C",
"*+	c #6D749B",
"=+	c #43456E",
"-+	c #8F90A6",
";+	c #A5A3AD",
">+	c #818280",
",+	c #696C5A",
"'+	c #838261",
")+	c #303047",
"!+	c #1D1D42",
"~+	c #383D5F",
"{+	c #161B3B",
"]+	c #0E101D",
"^+	c #020101",
"/+	c #161830",
"(+	c #95A3CE",
"_+	c #8E9AC6",
":+	c #3E4682",
"<+	c #333778",
"[+	c #292F6B",
"}+	c #2F3169",
"|+	c #4E5174",
"1+	c #76748C",
"2+	c #767586",
"3+	c #454C51",
"4+	c #49533C",
"5+	c #58655E",
"6+	c #788480",
"7+	c #2C3451",
"8+	c #171D3A",
"9+	c #050713",
"0+	c #000105",
"a+	c #040512",
"b+	c #505A9A",
"c+	c #6670AF",
"d+	c #535C9B",
"e+	c #454E8B",
"f+	c #4F588B",
"g+	c #525786",
"h+	c #5B5D89",
"i+	c #4E4E74",
"j+	c #474868",
"k+	c #41416A",
"l+	c #1B1D46",
"m+	c #363E5C",
"n+	c #39425A",
"o+	c #394453",
"p+	c #1C2433",
"q+	c #020306",
"r+	c #020202",
"s+	c #363968",
"t+	c #46519D",
"u+	c #3F4C92",
"v+	c #394684",
"w+	c #6C74A7",
"x+	c #6E73A3",
"y+	c #5A5E87",
"z+	c #60648C",
"A+	c #323564",
"B+	c #2F305C",
"C+	c #4A4D73",
"D+	c #1B214A",
"E+	c #2A3265",
"F+	c #343D4C",
"G+	c #11161D",
"H+	c #0A0C15",
"I+	c #5666A1",
"J+	c #3A4997",
"K+	c #3D478D",
"L+	c #4A5292",
"M+	c #4C528A",
"N+	c #4F5383",
"O+	c #5B608B",
"P+	c #545887",
"Q+	c #63678F",
"R+	c #7A80A3",
"S+	c #62698E",
"T+	c #676F95",
"U+	c #232637",
"V+	c #04040B",
"W+	c #282E45",
"X+	c #5B67AD",
"Y+	c #3B4898",
"Z+	c #3F4B92",
"`+	c #464E93",
" @	c #404587",
".@	c #4C518D",
"+@	c #4B5188",
"@@	c #515889",
"#@	c #7A82AB",
"$@	c #5C6489",
"%@	c #757E9D",
"&@	c #0D0F1B",
"*@	c #010103",
"=@	c #010203",
"-@	c #393E5E",
";@	c #5767A7",
">@	c #3F4E97",
",@	c #3F4B91",
"'@	c #454E91",
")@	c #394280",
"!@	c #434D86",
"~@	c #576091",
"{@	c #7D85AD",
"]@	c #757DA2",
"^@	c #8992B2",
"/@	c #000104",
"(@	c #010105",
"_@	c #282E42",
":@	c #717EAF",
"<@	c #5F6BA9",
"[@	c #475397",
"}@	c #5E69A4",
"|@	c #6E78AA",
"1@	c #8F98C1",
"2@	c #858FB5",
"3@	c #7079A7",
"4@	c #727AA6",
"5@	c #0C0E1B",
"6@	c #3E4669",
"7@	c #4D5A92",
"8@	c #5A64A6",
"9@	c #646DAB",
"0@	c #545D9B",
"a@	c #50589A",
"b@	c #525C96",
"c@	c #6B76A7",
"d@	c #020005",
"e@	c #060512",
"f@	c #1C1F33",
"g@	c #333853",
"h@	c #3A3F63",
"i@	c #34365B",
"j@	c #262A45",
"k@	c #171B2D",
"l@	c #020000",
"m@	c #010101",
". . . . . . + + @ @ @ @ # @ @ . $ % $ . . . . . ",
". . . . . . & * = - ; > , ' ) ! $ % $ ! . . . . ",
". . . . . ~ { ] ^ / ( _ : < [ ! $ % $ ! . . . . ",
". . . } | 1 2 3 4 5 6 7 8 9 0 ! $ % $ ! . . . . ",
". . . a b c d e f g h i j k l ! $ % $ ! + . . . ",
". } m n o p q r s t u v w x y ! $ % $ ! z @ . . ",
"A B C D E F G H I J K L M N O ! $ % $ ! P Q @ + ",
"~ R S T U V W X Y Z `  ...+.@.! $ % $ ! #.$.%.# ",
"~ &.*.=.-.;.>.,.'.).!.~.{.].^.! $ % $ ! /.(._.. ",
"A :.<.[.}.|.1.2.3.4.5.6.7.8.9.! $ % $ ! 0.a.b.c.",
"m d.e.f.g.h.i.j.k.l.m.n.o.p.q.! $ % $ ! r.s.t.c.",
"m u.v.w.x.y.z.A.B.C.D.E.F.G.H.! $ % $ ! I.J.K.~ ",
"L.M.N.O.P.Q.R.S.T.U.V.W.X.Y.Z.! $ % $ ! `. +.+~ ",
"++@+#+$+%+&+*+=+-+;+>+,+'+)+!+! $ % $ ! ~+{+]+~ ",
"^+/+(+_+:+<+[+}+|+1+2+3+4+5+6+! $ % $ ! 7+8+9+~ ",
"0+a+b+c+d+e+f+g+h+i+j+k+l+m+n+! $ % $ ! o+p+q+. ",
"A r+s+t+u+v+w+x+y+z+A+B+C+D+E+! $ % $ ! F+G+} } ",
"~ m H+I+J+K+L+M+N+O+P+Q+R+S+T+! $ % $ ! U+V+# # ",
". . ~ W+X+Y+Z+`+ @.@+@@@#@$@%@! $ % $ ! &@*@c.. ",
". . . =@-@;@>@,@'@)@!@~@{@]@^@! $ % $ ! /@. . . ",
". . . c.(@_@:@<@[@}@|@1@2@3@4@! $ % $ ! . . @ . ",
". . . . . m 5@6@7@8@9@0@a@b@c@! $ % $ ! @ . . . ",
". . . . . . . d@e@f@g@h@i@j@k@! $ % $ ! @ . . . ",
". . . . . . . } l@} m@a + @ m@. $ % $ . . . . . "};
