/* XPM */
static const char * earth2_xpm[] = {
"24 24 320 2",
"  	c None",
". 	c #000000",
"+ 	c #2AFF00",
"@ 	c #FFFFFF",
"# 	c #000001",
"$ 	c #010001",
"% 	c #1B8806",
"& 	c #161722",
"* 	c #1B1C27",
"= 	c #191A25",
"- 	c #11131E",
"; 	c #080911",
"> 	c #010205",
", 	c #000101",
"' 	c #000100",
") 	c #5C5E73",
"! 	c #57596E",
"~ 	c #4E5065",
"{ 	c #42455A",
"] 	c #33364C",
"^ 	c #232639",
"/ 	c #141821",
"( 	c #030508",
"_ 	c #010000",
": 	c #000203",
"< 	c #7F8499",
"[ 	c #7F8396",
"} 	c #75788A",
"| 	c #52596D",
"1 	c #4B5165",
"2 	c #43485B",
"3 	c #2B3043",
"4 	c #171B2F",
"5 	c #0A0B18",
"6 	c #010004",
"7 	c #000103",
"8 	c #212339",
"9 	c #6A707D",
"0 	c #797E88",
"a 	c #7F838C",
"b 	c #686F7F",
"c 	c #444A61",
"d 	c #363A53",
"e 	c #3F445D",
"f 	c #262A45",
"g 	c #181C32",
"h 	c #0C0F18",
"i 	c #000002",
"j 	c #010102",
"k 	c #1C1F32",
"l 	c #70759B",
"m 	c #81878E",
"n 	c #7B8087",
"o 	c #5C606D",
"p 	c #4E546F",
"q 	c #404663",
"r 	c #414758",
"s 	c #555C6A",
"t 	c #40485A",
"u 	c #1C233A",
"v 	c #1C1F37",
"w 	c #0A0A16",
"x 	c #000102",
"y 	c #030001",
"z 	c #060711",
"A 	c #414E78",
"B 	c #6975A6",
"C 	c #A5AAAA",
"D 	c #ABAEAB",
"E 	c #646B64",
"F 	c #3D4749",
"G 	c #434B5F",
"H 	c #515A61",
"I 	c #4A5455",
"J 	c #2F394F",
"K 	c #141C39",
"L 	c #1A1E39",
"M 	c #161832",
"N 	c #020409",
"O 	c #020103",
"P 	c #1F2448",
"Q 	c #545F97",
"R 	c #313B78",
"S 	c #9D9F97",
"T 	c #6E7062",
"U 	c #5D6554",
"V 	c #4E5A4C",
"W 	c #657070",
"X 	c #6C786F",
"Y 	c #414B4A",
"Z 	c #29314C",
"` 	c #141B3D",
" .	c #202442",
"..	c #11122D",
"+.	c #0B0D1A",
"@.	c #000004",
"#.	c #03040D",
"$.	c #323B76",
"%.	c #3A4485",
"&.	c #3C457E",
"*.	c #757361",
"=.	c #636549",
"-.	c #54603C",
";.	c #4C5B43",
">.	c #7C8785",
",.	c #697273",
"'.	c #454E4F",
").	c #141B3B",
"!.	c #282E51",
"~.	c #282B4C",
"{.	c #121531",
"].	c #0F1226",
"^.	c #020309",
"/.	c #10142B",
"(.	c #3E498B",
"_.	c #555F9A",
":.	c #5B5F94",
"<.	c #756B4B",
"[.	c #716D4E",
"}.	c #4F5831",
"|.	c #3F512C",
"1.	c #58654F",
"2.	c #99A29F",
"3.	c #A7B0AE",
"4.	c #636785",
"5.	c #505670",
"6.	c #313656",
"7.	c #101636",
"8.	c #0E142B",
"9.	c #05090E",
"0.	c #1E2243",
"a.	c #4B5698",
"b.	c #535D97",
"c.	c #7277A2",
"d.	c #867656",
"e.	c #746849",
"f.	c #67643D",
"g.	c #5C6842",
"h.	c #949E8B",
"i.	c #A1AD99",
"j.	c #798088",
"k.	c #5E6577",
"l.	c #3D4260",
"m.	c #161A40",
"n.	c #151B3C",
"o.	c #111632",
"p.	c #0A0D16",
"q.	c #272D53",
"r.	c #394588",
"s.	c #454F88",
"t.	c #7980A9",
"u.	c #C5BCA9",
"v.	c #A08F74",
"w.	c #827956",
"x.	c #717962",
"y.	c #7D8A83",
"z.	c #48564A",
"A.	c #2A304D",
"B.	c #33375F",
"C.	c #151846",
"D.	c #131643",
"E.	c #181D41",
"F.	c #141938",
"G.	c #0B0E1A",
"H.	c #010202",
"I.	c #333961",
"J.	c #3D4893",
"K.	c #41498E",
"L.	c #454C87",
"M.	c #7B7D6C",
"N.	c #80785A",
"O.	c #847D57",
"P.	c #393A42",
"Q.	c #0E1334",
"R.	c #080F2D",
"S.	c #223149",
"T.	c #121B3F",
"U.	c #191D43",
"V.	c #23274D",
"W.	c #1E2346",
"X.	c #141939",
"Y.	c #0F121F",
"Z.	c #010100",
"`.	c #2C3051",
" +	c #6871B2",
".+	c #454D8F",
"++	c #363C7E",
"@+	c #818280",
"#+	c #696C5A",
"$+	c #838261",
"%+	c #303047",
"&+	c #1D1D42",
"*+	c #1C1E40",
"=+	c #222E4B",
"-+	c #26304A",
";+	c #2B2F50",
">+	c #5F6484",
",+	c #383D5F",
"'+	c #161B3B",
")+	c #0E101D",
"!+	c #020101",
"~+	c #161830",
"{+	c #95A3CE",
"]+	c #8E9AC6",
"^+	c #3E4682",
"/+	c #767586",
"(+	c #454C51",
"_+	c #49533C",
":+	c #58655E",
"<+	c #788480",
"[+	c #9BA1A8",
"}+	c #35345B",
"|+	c #272755",
"1+	c #303456",
"2+	c #4B506D",
"3+	c #2C3451",
"4+	c #171D3A",
"5+	c #050713",
"6+	c #000105",
"7+	c #040512",
"8+	c #505A9A",
"9+	c #6670AF",
"0+	c #535C9B",
"a+	c #474868",
"b+	c #41416A",
"c+	c #1B1D46",
"d+	c #363E5C",
"e+	c #39425A",
"f+	c #6A747B",
"g+	c #5F6777",
"h+	c #484F66",
"i+	c #6C757E",
"j+	c #5C656F",
"k+	c #394453",
"l+	c #1C2433",
"m+	c #020306",
"n+	c #020202",
"o+	c #363968",
"p+	c #46519D",
"q+	c #3F4C92",
"r+	c #323564",
"s+	c #2F305C",
"t+	c #4A4D73",
"u+	c #1B214A",
"v+	c #2A3265",
"w+	c #38416D",
"x+	c #566080",
"y+	c #6B7682",
"z+	c #7F888F",
"A+	c #717985",
"B+	c #343D4C",
"C+	c #11161D",
"D+	c #0A0C15",
"E+	c #5666A1",
"F+	c #3A4997",
"G+	c #545887",
"H+	c #63678F",
"I+	c #7A80A3",
"J+	c #62698E",
"K+	c #676F95",
"L+	c #6B719A",
"M+	c #6A7092",
"N+	c #8D97A7",
"O+	c #8B93A5",
"P+	c #5C6275",
"Q+	c #232637",
"R+	c #04040B",
"S+	c #282E45",
"T+	c #5B67AD",
"U+	c #4B5188",
"V+	c #515889",
"W+	c #7A82AB",
"X+	c #5C6489",
"Y+	c #757E9D",
"Z+	c #8089AB",
"`+	c #8F98B3",
" @	c #6B7B85",
".@	c #31404C",
"+@	c #2B3548",
"@@	c #0D0F1B",
"#@	c #010103",
"$@	c #010203",
"%@	c #393E5E",
"&@	c #434D86",
"*@	c #576091",
"=@	c #7D85AD",
"-@	c #757DA2",
";@	c #8992B2",
">@	c #A0A9C7",
",@	c #8891AE",
"'@	c #646D88",
")@	c #474F63",
"!@	c #141925",
"~@	c #000104",
"{@	c #010105",
"]@	c #6E78AA",
"^@	c #8F98C1",
"/@	c #858FB5",
"(@	c #7079A7",
"_@	c #727AA6",
":@	c #8891B7",
"<@	c #767FA7",
"[@	c #585B7F",
"}@	c #1B192C",
"|@	c #646DAB",
"1@	c #545D9B",
"2@	c #50589A",
"3@	c #525C96",
"4@	c #6B76A7",
"5@	c #677094",
"6@	c #292C40",
"7@	c #070710",
"8@	c #010106",
"9@	c #000003",
"0@	c #333853",
"a@	c #3A3F63",
"b@	c #34365B",
"c@	c #171B2D",
"d@	c #03050F",
"e@	c #010101",
". . . . . . + @ + . # # $ # # . # # . . . . . . ",
". . . . . % + @ + % & * = - ; > , ' . . . . . . ",
". . . . . % + @ + % ) ! ~ { ] ^ / ( # . . . . . ",
". . . _ : % + @ + % < [ } | 1 2 3 4 5 6 . . . . ",
". . . 7 8 % + @ + % 9 0 a b c d e f g h i . . . ",
". _ j k l % + @ + % m n o p q r s t u v w # . . ",
"x y z A B % + @ + % C D E F G H I J K L M N # i ",
", O P Q R % + @ + % S T U V W X Y Z `  ...+.@.$ ",
", #.$.%.&.% + @ + % *.=.-.;.>.,.'.).!.~.{.].^.. ",
"x /.(._.:.% + @ + % <.[.}.|.1.2.3.4.5.6.7.8.9.' ",
"j 0.a.b.c.% + @ + % d.e.f.g.h.i.j.k.l.m.n.o.p.' ",
"j q.r.s.t.% + @ + % u.v.w.x.y.z.A.B.C.D.E.F.G., ",
"H.I.J.K.L.% + @ + % M.N.O.P.Q.R.S.T.U.V.W.X.Y., ",
"Z.`. +.+++% + @ + % @+#+$+%+&+*+=+-+;+>+,+'+)+, ",
"!+~+{+]+^+% + @ + % /+(+_+:+<+[+}+|+1+2+3+4+5+, ",
"6+7+8+9+0+% + @ + % a+b+c+d+e+f+g+h+i+j+k+l+m+. ",
"x n+o+p+q+% + @ + % r+s+t+u+v+w+x+y+z+A+B+C+_ _ ",
", j D+E+F+% + @ + % G+H+I+J+K+L+M+N+O+P+Q+R+$ $ ",
". . , S+T+% + @ + % U+V+W+X+Y+Z+`+ @.@+@@@#@' . ",
". . . $@%@% + @ + % &@*@=@-@;@>@,@'@)@!@~@. . . ",
". . . ' {@% + @ + % ]@^@/@(@_@:@<@[@}@#@. . # . ",
". . . . . % + @ + % |@1@2@3@4@5@6@7@8@9@# . . . ",
". . . . . % + @ + % 0@a@b@f c@d@i _ . # # . . . ",
". . . . . . + @ + . e@7 i # e@Z.. # . . . . . . "};
