/* XPM */
static const char * earth3_xpm[] = {
"24 24 316 2",
"  	c None",
". 	c #000000",
"+ 	c #000002",
"@ 	c #000001",
"# 	c #2AFF00",
"$ 	c #FFFFFF",
"% 	c #000200",
"& 	c #000202",
"* 	c #010207",
"= 	c #0A0B16",
"- 	c #1B8806",
"; 	c #010205",
"> 	c #000101",
", 	c #000100",
"' 	c #030709",
") 	c #191D28",
"! 	c #424558",
"~ 	c #585A70",
"{ 	c #232639",
"] 	c #141821",
"^ 	c #030508",
"/ 	c #010000",
"( 	c #000203",
"_ 	c #101424",
": 	c #414D65",
"< 	c #636B83",
"[ 	c #71778E",
"} 	c #7A7F95",
"| 	c #43485B",
"1 	c #2B3043",
"2 	c #171B2F",
"3 	c #0A0B18",
"4 	c #010004",
"5 	c #000103",
"6 	c #212339",
"7 	c #60658B",
"8 	c #7984A7",
"9 	c #8790A5",
"0 	c #89919C",
"a 	c #838997",
"b 	c #363A53",
"c 	c #3F445D",
"d 	c #262A45",
"e 	c #181C32",
"f 	c #0C0F18",
"g 	c #010102",
"h 	c #1C1F32",
"i 	c #70759B",
"j 	c #7A82A9",
"k 	c #747F9E",
"l 	c #828AA1",
"m 	c #9BA2AF",
"n 	c #858D93",
"o 	c #414758",
"p 	c #555C6A",
"q 	c #40485A",
"r 	c #1C233A",
"s 	c #1C1F37",
"t 	c #0A0A16",
"u 	c #000102",
"v 	c #030001",
"w 	c #060711",
"x 	c #414E78",
"y 	c #6975A6",
"z 	c #646F9A",
"A 	c #8388A7",
"B 	c #969BB9",
"C 	c #9096AB",
"D 	c #828B8D",
"E 	c #515A61",
"F 	c #4A5455",
"G 	c #2F394F",
"H 	c #141C39",
"I 	c #1A1E39",
"J 	c #161832",
"K 	c #020409",
"L 	c #020103",
"M 	c #1F2448",
"N 	c #545F97",
"O 	c #313B78",
"P 	c #454F84",
"Q 	c #8A8FAD",
"R 	c #73779B",
"S 	c #7F839F",
"T 	c #8D9292",
"U 	c #6C786F",
"V 	c #414B4A",
"W 	c #29314C",
"X 	c #141B3D",
"Y 	c #202442",
"Z 	c #11122D",
"` 	c #0B0D1A",
" .	c #000004",
"..	c #010001",
"+.	c #03040D",
"@.	c #323B76",
"#.	c #3A4485",
"$.	c #3C457E",
"%.	c #8992B7",
"&.	c #888CAC",
"*.	c #A3A8C1",
"=.	c #B5BBC9",
"-.	c #A7A9A3",
";.	c #697273",
">.	c #454E4F",
",.	c #141B3B",
"'.	c #282E51",
").	c #282B4C",
"!.	c #121531",
"~.	c #0F1226",
"{.	c #020309",
"].	c #10142B",
"^.	c #3E498B",
"/.	c #555F9A",
"(.	c #5B5F94",
"_.	c #B2B4CD",
":.	c #9296AF",
"<.	c #9498B2",
"[.	c #515461",
"}.	c #767155",
"|.	c #99A29F",
"1.	c #A7B0AE",
"2.	c #636785",
"3.	c #505670",
"4.	c #313656",
"5.	c #101636",
"6.	c #0E142B",
"7.	c #05090E",
"8.	c #1E2243",
"9.	c #4B5698",
"0.	c #535D97",
"a.	c #7277A2",
"b.	c #A4A7BF",
"c.	c #A4A8BF",
"d.	c #8D91AD",
"e.	c #646374",
"f.	c #8B7C63",
"g.	c #A1AD99",
"h.	c #798088",
"i.	c #5E6577",
"j.	c #3D4260",
"k.	c #161A40",
"l.	c #151B3C",
"m.	c #111632",
"n.	c #0A0D16",
"o.	c #272D53",
"p.	c #394588",
"q.	c #454F88",
"r.	c #7980A9",
"s.	c #A4A8C4",
"t.	c #9598B3",
"u.	c #989BB2",
"v.	c #ADADC1",
"w.	c #C5BFC3",
"x.	c #48564A",
"y.	c #2A304D",
"z.	c #33375F",
"A.	c #151846",
"B.	c #131643",
"C.	c #181D41",
"D.	c #141938",
"E.	c #0B0E1A",
"F.	c #010202",
"G.	c #333961",
"H.	c #3D4893",
"I.	c #41498E",
"J.	c #454C87",
"K.	c #7C82A5",
"L.	c #B7BCD1",
"M.	c #9FA0B7",
"N.	c #A8A5BA",
"O.	c #9E9DA4",
"P.	c #080F2D",
"Q.	c #223149",
"R.	c #121B3F",
"S.	c #191D43",
"T.	c #23274D",
"U.	c #1E2346",
"V.	c #141939",
"W.	c #0F121F",
"X.	c #010100",
"Y.	c #2C3051",
"Z.	c #6871B2",
"`.	c #454D8F",
" +	c #363C7E",
".+	c #65699C",
"++	c #6D749B",
"@+	c #43456E",
"#+	c #8F90A6",
"$+	c #A5A3AD",
"%+	c #1C1E40",
"&+	c #222E4B",
"*+	c #26304A",
"=+	c #2B2F50",
"-+	c #5F6484",
";+	c #383D5F",
">+	c #161B3B",
",+	c #0E101D",
"'+	c #020101",
")+	c #161830",
"!+	c #95A3CE",
"~+	c #8E9AC6",
"{+	c #3E4682",
"]+	c #333778",
"^+	c #292F6B",
"/+	c #2F3169",
"(+	c #4E5174",
"_+	c #76748C",
":+	c #9BA1A8",
"<+	c #35345B",
"[+	c #272755",
"}+	c #303456",
"|+	c #4B506D",
"1+	c #2C3451",
"2+	c #171D3A",
"3+	c #050713",
"4+	c #000105",
"5+	c #040512",
"6+	c #505A9A",
"7+	c #6670AF",
"8+	c #535C9B",
"9+	c #454E8B",
"0+	c #4F588B",
"a+	c #525786",
"b+	c #5B5D89",
"c+	c #4E4E74",
"d+	c #6A747B",
"e+	c #5F6777",
"f+	c #484F66",
"g+	c #6C757E",
"h+	c #5C656F",
"i+	c #394453",
"j+	c #1C2433",
"k+	c #020306",
"l+	c #020202",
"m+	c #363968",
"n+	c #46519D",
"o+	c #3F4C92",
"p+	c #394684",
"q+	c #6C74A7",
"r+	c #6E73A3",
"s+	c #5A5E87",
"t+	c #60648C",
"u+	c #38416D",
"v+	c #566080",
"w+	c #6B7682",
"x+	c #7F888F",
"y+	c #717985",
"z+	c #343D4C",
"A+	c #11161D",
"B+	c #0A0C15",
"C+	c #5666A1",
"D+	c #3A4997",
"E+	c #3D478D",
"F+	c #4A5292",
"G+	c #4C528A",
"H+	c #4F5383",
"I+	c #5B608B",
"J+	c #6B719A",
"K+	c #6A7092",
"L+	c #8D97A7",
"M+	c #8B93A5",
"N+	c #5C6275",
"O+	c #232637",
"P+	c #04040B",
"Q+	c #282E45",
"R+	c #5B67AD",
"S+	c #3B4898",
"T+	c #3F4B92",
"U+	c #464E93",
"V+	c #404587",
"W+	c #4C518D",
"X+	c #8089AB",
"Y+	c #8F98B3",
"Z+	c #6B7B85",
"`+	c #31404C",
" @	c #2B3548",
".@	c #0D0F1B",
"+@	c #010103",
"@@	c #010203",
"#@	c #393E5E",
"$@	c #5767A7",
"%@	c #3F4E97",
"&@	c #3F4B91",
"*@	c #454E91",
"=@	c #394280",
"-@	c #A0A9C7",
";@	c #8891AE",
">@	c #646D88",
",@	c #474F63",
"'@	c #141925",
")@	c #000104",
"!@	c #010105",
"~@	c #282E42",
"{@	c #717EAF",
"]@	c #5F6BA9",
"^@	c #475397",
"/@	c #5E69A4",
"(@	c #8891B7",
"_@	c #767FA7",
":@	c #585B7F",
"<@	c #1B192C",
"[@	c #0C0E1B",
"}@	c #3E4669",
"|@	c #4D5A92",
"1@	c #5A64A6",
"2@	c #677094",
"3@	c #292C40",
"4@	c #070710",
"5@	c #010106",
"6@	c #000003",
"7@	c #020005",
"8@	c #060512",
"9@	c #1C1F33",
"0@	c #03050F",
"a@	c #020000",
". . . . . . + + @ @ . # $ # . . @ @ . . . . . . ",
". . . . . . % & * = - # $ # - ; > , . . . . . . ",
". . . . . > ' ) ! ~ - # $ # - { ] ^ @ . . . . . ",
". . . / ( _ : < [ } - # $ # - | 1 2 3 4 . . . . ",
". . . 5 6 7 8 9 0 a - # $ # - b c d e f + . . . ",
". / g h i j k l m n - # $ # - o p q r s t @ . . ",
"u v w x y z A B C D - # $ # - E F G H I J K @ + ",
"> L M N O P Q R S T - # $ # - U V W X Y Z `  ...",
"> +.@.#.$.%.&.*.=.-.- # $ # - ;.>.,.'.).!.~.{.. ",
"u ].^./.(._.:.<.[.}.- # $ # - |.1.2.3.4.5.6.7., ",
"g 8.9.0.a.b.c.d.e.f.- # $ # - g.h.i.j.k.l.m.n., ",
"g o.p.q.r.s.t.u.v.w.- # $ # - x.y.z.A.B.C.D.E.> ",
"F.G.H.I.J.K.L.M.N.O.- # $ # - P.Q.R.S.T.U.V.W.> ",
"X.Y.Z.`. +.+++@+#+$+- # $ # - %+&+*+=+-+;+>+,+> ",
"'+)+!+~+{+]+^+/+(+_+- # $ # - :+<+[+}+|+1+2+3+> ",
"4+5+6+7+8+9+0+a+b+c+- # $ # - d+e+f+g+h+i+j+k+. ",
"u l+m+n+o+p+q+r+s+t+- # $ # - u+v+w+x+y+z+A+/ / ",
"> g B+C+D+E+F+G+H+I+- # $ # - J+K+L+M+N+O+P+....",
". . > Q+R+S+T+U+V+W+- # $ # - X+Y+Z+`+ @.@+@, . ",
". . . @@#@$@%@&@*@=@- # $ # - -@;@>@,@'@)@. . . ",
". . . , !@~@{@]@^@/@- # $ # - (@_@:@<@+@. . @ . ",
". . . . . g [@}@|@1@- # $ # - 2@3@4@5@6@@ . . . ",
". . . . . . . 7@8@9@- # $ # - 0@+ / . @ @ . . . ",
". . . . . . . / a@/ . # $ # . X.. @ . . . . . . "};
