/* XPM */
static const char* earth_xpm[] = {
"24 24 422 2",
"  	c #000000",
". 	c #000002",
"+ 	c #000001",
"@ 	c #010001",
"# 	c #000200",
"$ 	c #000202",
"% 	c #010207",
"& 	c #0A0B16",
"* 	c #161722",
"= 	c #1B1C27",
"- 	c #191A25",
"; 	c #11131E",
"> 	c #080911",
", 	c #010205",
"' 	c #000101",
") 	c #000100",
"! 	c #030709",
"~ 	c #191D28",
"{ 	c #424558",
"] 	c #585A70",
"^ 	c #5C5E73",
"/ 	c #57596E",
"( 	c #4E5065",
"_ 	c #42455A",
": 	c #33364C",
"< 	c #232639",
"[ 	c #141821",
"} 	c #030508",
"| 	c #010000",
"1 	c #000203",
"2 	c #101424",
"3 	c #414D65",
"4 	c #636B83",
"5 	c #71778E",
"6 	c #7A7F95",
"7 	c #7F8499",
"8 	c #7F8396",
"9 	c #75788A",
"0 	c #52596D",
"a 	c #4B5165",
"b 	c #43485B",
"c 	c #2B3043",
"d 	c #171B2F",
"e 	c #0A0B18",
"f 	c #010004",
"g 	c #000103",
"h 	c #212339",
"i 	c #60658B",
"j 	c #7984A7",
"k 	c #8790A5",
"l 	c #89919C",
"m 	c #838997",
"n 	c #6A707D",
"o 	c #797E88",
"p 	c #7F838C",
"q 	c #686F7F",
"r 	c #444A61",
"s 	c #363A53",
"t 	c #3F445D",
"u 	c #262A45",
"v 	c #181C32",
"w 	c #0C0F18",
"x 	c #010102",
"y 	c #1C1F32",
"z 	c #70759B",
"A 	c #7A82A9",
"B 	c #747F9E",
"C 	c #828AA1",
"D 	c #9BA2AF",
"E 	c #858D93",
"F 	c #81878E",
"G 	c #7B8087",
"H 	c #5C606D",
"I 	c #4E546F",
"J 	c #404663",
"K 	c #414758",
"L 	c #555C6A",
"M 	c #40485A",
"N 	c #1C233A",
"O 	c #1C1F37",
"P 	c #0A0A16",
"Q 	c #000102",
"R 	c #030001",
"S 	c #060711",
"T 	c #414E78",
"U 	c #6975A6",
"V 	c #646F9A",
"W 	c #8388A7",
"X 	c #969BB9",
"Y 	c #9096AB",
"Z 	c #828B8D",
"` 	c #A5AAAA",
" .	c #ABAEAB",
"..	c #646B64",
"+.	c #3D4749",
"@.	c #434B5F",
"#.	c #515A61",
"$.	c #4A5455",
"%.	c #2F394F",
"&.	c #141C39",
"*.	c #1A1E39",
"=.	c #161832",
"-.	c #020409",
";.	c #020103",
">.	c #1F2448",
",.	c #545F97",
"'.	c #313B78",
").	c #454F84",
"!.	c #8A8FAD",
"~.	c #73779B",
"{.	c #7F839F",
"].	c #8D9292",
"^.	c #9D9F97",
"/.	c #6E7062",
"(.	c #5D6554",
"_.	c #4E5A4C",
":.	c #657070",
"<.	c #6C786F",
"[.	c #414B4A",
"}.	c #29314C",
"|.	c #141B3D",
"1.	c #202442",
"2.	c #11122D",
"3.	c #0B0D1A",
"4.	c #000004",
"5.	c #03040D",
"6.	c #323B76",
"7.	c #3A4485",
"8.	c #3C457E",
"9.	c #8992B7",
"0.	c #888CAC",
"a.	c #A3A8C1",
"b.	c #B5BBC9",
"c.	c #A7A9A3",
"d.	c #757361",
"e.	c #636549",
"f.	c #54603C",
"g.	c #4C5B43",
"h.	c #7C8785",
"i.	c #697273",
"j.	c #454E4F",
"k.	c #141B3B",
"l.	c #282E51",
"m.	c #282B4C",
"n.	c #121531",
"o.	c #0F1226",
"p.	c #020309",
"q.	c #10142B",
"r.	c #3E498B",
"s.	c #555F9A",
"t.	c #5B5F94",
"u.	c #B2B4CD",
"v.	c #9296AF",
"w.	c #9498B2",
"x.	c #515461",
"y.	c #767155",
"z.	c #756B4B",
"A.	c #716D4E",
"B.	c #4F5831",
"C.	c #3F512C",
"D.	c #58654F",
"E.	c #99A29F",
"F.	c #A7B0AE",
"G.	c #636785",
"H.	c #505670",
"I.	c #313656",
"J.	c #101636",
"K.	c #0E142B",
"L.	c #05090E",
"M.	c #1E2243",
"N.	c #4B5698",
"O.	c #535D97",
"P.	c #7277A2",
"Q.	c #A4A7BF",
"R.	c #A4A8BF",
"S.	c #8D91AD",
"T.	c #646374",
"U.	c #8B7C63",
"V.	c #867656",
"W.	c #746849",
"X.	c #67643D",
"Y.	c #5C6842",
"Z.	c #949E8B",
"`.	c #A1AD99",
" +	c #798088",
".+	c #5E6577",
"++	c #3D4260",
"@+	c #161A40",
"#+	c #151B3C",
"$+	c #111632",
"%+	c #0A0D16",
"&+	c #272D53",
"*+	c #394588",
"=+	c #454F88",
"-+	c #7980A9",
";+	c #A4A8C4",
">+	c #9598B3",
",+	c #989BB2",
"'+	c #ADADC1",
")+	c #C5BFC3",
"!+	c #C5BCA9",
"~+	c #A08F74",
"{+	c #827956",
"]+	c #717962",
"^+	c #7D8A83",
"/+	c #48564A",
"(+	c #2A304D",
"_+	c #33375F",
":+	c #151846",
"<+	c #131643",
"[+	c #181D41",
"}+	c #141938",
"|+	c #0B0E1A",
"1+	c #010202",
"2+	c #333961",
"3+	c #3D4893",
"4+	c #41498E",
"5+	c #454C87",
"6+	c #7C82A5",
"7+	c #B7BCD1",
"8+	c #9FA0B7",
"9+	c #A8A5BA",
"0+	c #9E9DA4",
"a+	c #7B7D6C",
"b+	c #80785A",
"c+	c #847D57",
"d+	c #393A42",
"e+	c #0E1334",
"f+	c #080F2D",
"g+	c #223149",
"h+	c #121B3F",
"i+	c #191D43",
"j+	c #23274D",
"k+	c #1E2346",
"l+	c #141939",
"m+	c #0F121F",
"n+	c #010100",
"o+	c #2C3051",
"p+	c #6871B2",
"q+	c #454D8F",
"r+	c #363C7E",
"s+	c #65699C",
"t+	c #6D749B",
"u+	c #43456E",
"v+	c #8F90A6",
"w+	c #A5A3AD",
"x+	c #818280",
"y+	c #696C5A",
"z+	c #838261",
"A+	c #303047",
"B+	c #1D1D42",
"C+	c #1C1E40",
"D+	c #222E4B",
"E+	c #26304A",
"F+	c #2B2F50",
"G+	c #5F6484",
"H+	c #383D5F",
"I+	c #161B3B",
"J+	c #0E101D",
"K+	c #020101",
"L+	c #161830",
"M+	c #95A3CE",
"N+	c #8E9AC6",
"O+	c #3E4682",
"P+	c #333778",
"Q+	c #292F6B",
"R+	c #2F3169",
"S+	c #4E5174",
"T+	c #76748C",
"U+	c #767586",
"V+	c #454C51",
"W+	c #49533C",
"X+	c #58655E",
"Y+	c #788480",
"Z+	c #9BA1A8",
"`+	c #35345B",
" @	c #272755",
".@	c #303456",
"+@	c #4B506D",
"@@	c #2C3451",
"#@	c #171D3A",
"$@	c #050713",
"%@	c #000105",
"&@	c #040512",
"*@	c #505A9A",
"=@	c #6670AF",
"-@	c #535C9B",
";@	c #454E8B",
">@	c #4F588B",
",@	c #525786",
"'@	c #5B5D89",
")@	c #4E4E74",
"!@	c #474868",
"~@	c #41416A",
"{@	c #1B1D46",
"]@	c #363E5C",
"^@	c #39425A",
"/@	c #6A747B",
"(@	c #5F6777",
"_@	c #484F66",
":@	c #6C757E",
"<@	c #5C656F",
"[@	c #394453",
"}@	c #1C2433",
"|@	c #020306",
"1@	c #020202",
"2@	c #363968",
"3@	c #46519D",
"4@	c #3F4C92",
"5@	c #394684",
"6@	c #6C74A7",
"7@	c #6E73A3",
"8@	c #5A5E87",
"9@	c #60648C",
"0@	c #323564",
"a@	c #2F305C",
"b@	c #4A4D73",
"c@	c #1B214A",
"d@	c #2A3265",
"e@	c #38416D",
"f@	c #566080",
"g@	c #6B7682",
"h@	c #7F888F",
"i@	c #717985",
"j@	c #343D4C",
"k@	c #11161D",
"l@	c #0A0C15",
"m@	c #5666A1",
"n@	c #3A4997",
"o@	c #3D478D",
"p@	c #4A5292",
"q@	c #4C528A",
"r@	c #4F5383",
"s@	c #5B608B",
"t@	c #545887",
"u@	c #63678F",
"v@	c #7A80A3",
"w@	c #62698E",
"x@	c #676F95",
"y@	c #6B719A",
"z@	c #6A7092",
"A@	c #8D97A7",
"B@	c #8B93A5",
"C@	c #5C6275",
"D@	c #232637",
"E@	c #04040B",
"F@	c #282E45",
"G@	c #5B67AD",
"H@	c #3B4898",
"I@	c #3F4B92",
"J@	c #464E93",
"K@	c #404587",
"L@	c #4C518D",
"M@	c #4B5188",
"N@	c #515889",
"O@	c #7A82AB",
"P@	c #5C6489",
"Q@	c #757E9D",
"R@	c #8089AB",
"S@	c #8F98B3",
"T@	c #6B7B85",
"U@	c #31404C",
"V@	c #2B3548",
"W@	c #0D0F1B",
"X@	c #010103",
"Y@	c #010203",
"Z@	c #393E5E",
"`@	c #5767A7",
" #	c #3F4E97",
".#	c #3F4B91",
"+#	c #454E91",
"@#	c #394280",
"##	c #434D86",
"$#	c #576091",
"%#	c #7D85AD",
"&#	c #757DA2",
"*#	c #8992B2",
"=#	c #A0A9C7",
"-#	c #8891AE",
";#	c #646D88",
">#	c #474F63",
",#	c #141925",
"'#	c #000104",
")#	c #010105",
"!#	c #282E42",
"~#	c #717EAF",
"{#	c #5F6BA9",
"]#	c #475397",
"^#	c #5E69A4",
"/#	c #6E78AA",
"(#	c #8F98C1",
"_#	c #858FB5",
":#	c #7079A7",
"<#	c #727AA6",
"[#	c #8891B7",
"}#	c #767FA7",
"|#	c #585B7F",
"1#	c #1B192C",
"2#	c #0C0E1B",
"3#	c #3E4669",
"4#	c #4D5A92",
"5#	c #5A64A6",
"6#	c #646DAB",
"7#	c #545D9B",
"8#	c #50589A",
"9#	c #525C96",
"0#	c #6B76A7",
"a#	c #677094",
"b#	c #292C40",
"c#	c #070710",
"d#	c #010106",
"e#	c #000003",
"f#	c #020005",
"g#	c #060512",
"h#	c #1C1F33",
"i#	c #333853",
"j#	c #3A3F63",
"k#	c #34365B",
"l#	c #171B2D",
"m#	c #03050F",
"n#	c #020000",
"o#	c #010101",
"            . . + + + + @ + +   + +             ",
"            # $ % & * = - ; > , ' )             ",
"          ' ! ~ { ] ^ / ( _ : < [ } +           ",
"      | 1 2 3 4 5 6 7 8 9 0 a b c d e f         ",
"      g h i j k l m n o p q r s t u v w .       ",
"  | x y z A B C D E F G H I J K L M N O P +     ",
"Q R S T U V W X Y Z `  ...+.@.#.$.%.&.*.=.-.+ . ",
"' ;.>.,.'.).!.~.{.].^./.(._.:.<.[.}.|.1.2.3.4.@ ",
"' 5.6.7.8.9.0.a.b.c.d.e.f.g.h.i.j.k.l.m.n.o.p.  ",
"Q q.r.s.t.u.v.w.x.y.z.A.B.C.D.E.F.G.H.I.J.K.L.) ",
"x M.N.O.P.Q.R.S.T.U.V.W.X.Y.Z.`. +.+++@+#+$+%+) ",
"x &+*+=+-+;+>+,+'+)+!+~+{+]+^+/+(+_+:+<+[+}+|+' ",
"1+2+3+4+5+6+7+8+9+0+a+b+c+d+e+f+g+h+i+j+k+l+m+' ",
"n+o+p+q+r+s+t+u+v+w+x+y+z+A+B+C+D+E+F+G+H+I+J+' ",
"K+L+M+N+O+P+Q+R+S+T+U+V+W+X+Y+Z+`+ @.@+@@@#@$@' ",
"%@&@*@=@-@;@>@,@'@)@!@~@{@]@^@/@(@_@:@<@[@}@|@  ",
"Q 1@2@3@4@5@6@7@8@9@0@a@b@c@d@e@f@g@h@i@j@k@| | ",
"' x l@m@n@o@p@q@r@s@t@u@v@w@x@y@z@A@B@C@D@E@@ @ ",
"    ' F@G@H@I@J@K@L@M@N@O@P@Q@R@S@T@U@V@W@X@)   ",
"      Y@Z@`@ #.#+#@###$#%#&#*#=#-#;#>#,#'#      ",
"      ) )#!#~#{#]#^#/#(#_#:#<#[#}#|#1#X@    +   ",
"          x 2#3#4#5#6#7#8#9#0#a#b#c#d#e#+       ",
"              f#g#h#i#j#k#u l#m#. |   + +       ",
"              | n#| o#g . + o#n+  +             "};
