/* XPM */
static const char* earth5_xpm[] = {
"24 24 390 2",
"  	c None",
". 	c #000000",
"+ 	c #000002",
"@ 	c #000001",
"# 	c #010001",
"$ 	c #2AFF00",
"% 	c #FFFFFF",
"& 	c #000200",
"* 	c #000202",
"= 	c #010207",
"- 	c #0A0B16",
"; 	c #161722",
"> 	c #1B1C27",
", 	c #191A25",
"' 	c #11131E",
") 	c #080911",
"! 	c #010205",
"~ 	c #000101",
"{ 	c #000100",
"] 	c #1B8806",
"^ 	c #030709",
"/ 	c #191D28",
"( 	c #424558",
"_ 	c #585A70",
": 	c #5C5E73",
"< 	c #57596E",
"[ 	c #4E5065",
"} 	c #42455A",
"| 	c #33364C",
"1 	c #232639",
"2 	c #141821",
"3 	c #030508",
"4 	c #010000",
"5 	c #000203",
"6 	c #101424",
"7 	c #414D65",
"8 	c #636B83",
"9 	c #71778E",
"0 	c #7A7F95",
"a 	c #7F8499",
"b 	c #7F8396",
"c 	c #75788A",
"d 	c #52596D",
"e 	c #4B5165",
"f 	c #43485B",
"g 	c #2B3043",
"h 	c #171B2F",
"i 	c #0A0B18",
"j 	c #010004",
"k 	c #000103",
"l 	c #212339",
"m 	c #60658B",
"n 	c #7984A7",
"o 	c #8790A5",
"p 	c #89919C",
"q 	c #838997",
"r 	c #6A707D",
"s 	c #797E88",
"t 	c #7F838C",
"u 	c #686F7F",
"v 	c #444A61",
"w 	c #363A53",
"x 	c #3F445D",
"y 	c #262A45",
"z 	c #181C32",
"A 	c #0C0F18",
"B 	c #010102",
"C 	c #1C1F32",
"D 	c #70759B",
"E 	c #7A82A9",
"F 	c #747F9E",
"G 	c #828AA1",
"H 	c #9BA2AF",
"I 	c #858D93",
"J 	c #81878E",
"K 	c #7B8087",
"L 	c #5C606D",
"M 	c #4E546F",
"N 	c #404663",
"O 	c #414758",
"P 	c #555C6A",
"Q 	c #40485A",
"R 	c #1C233A",
"S 	c #1C1F37",
"T 	c #000102",
"U 	c #030001",
"V 	c #060711",
"W 	c #414E78",
"X 	c #6975A6",
"Y 	c #646F9A",
"Z 	c #8388A7",
"` 	c #969BB9",
" .	c #9096AB",
"..	c #828B8D",
"+.	c #A5AAAA",
"@.	c #ABAEAB",
"#.	c #646B64",
"$.	c #3D4749",
"%.	c #434B5F",
"&.	c #515A61",
"*.	c #4A5455",
"=.	c #2F394F",
"-.	c #141C39",
";.	c #1A1E39",
">.	c #020103",
",.	c #1F2448",
"'.	c #545F97",
").	c #313B78",
"!.	c #454F84",
"~.	c #8A8FAD",
"{.	c #73779B",
"].	c #7F839F",
"^.	c #8D9292",
"/.	c #9D9F97",
"(.	c #6E7062",
"_.	c #5D6554",
":.	c #4E5A4C",
"<.	c #657070",
"[.	c #6C786F",
"}.	c #414B4A",
"|.	c #29314C",
"1.	c #141B3D",
"2.	c #202442",
"3.	c #03040D",
"4.	c #323B76",
"5.	c #3A4485",
"6.	c #3C457E",
"7.	c #8992B7",
"8.	c #888CAC",
"9.	c #A3A8C1",
"0.	c #B5BBC9",
"a.	c #A7A9A3",
"b.	c #757361",
"c.	c #636549",
"d.	c #54603C",
"e.	c #4C5B43",
"f.	c #7C8785",
"g.	c #697273",
"h.	c #454E4F",
"i.	c #141B3B",
"j.	c #282E51",
"k.	c #282B4C",
"l.	c #10142B",
"m.	c #3E498B",
"n.	c #555F9A",
"o.	c #5B5F94",
"p.	c #B2B4CD",
"q.	c #9296AF",
"r.	c #9498B2",
"s.	c #515461",
"t.	c #767155",
"u.	c #756B4B",
"v.	c #716D4E",
"w.	c #4F5831",
"x.	c #3F512C",
"y.	c #58654F",
"z.	c #99A29F",
"A.	c #A7B0AE",
"B.	c #636785",
"C.	c #505670",
"D.	c #313656",
"E.	c #1E2243",
"F.	c #4B5698",
"G.	c #535D97",
"H.	c #7277A2",
"I.	c #A4A7BF",
"J.	c #A4A8BF",
"K.	c #8D91AD",
"L.	c #646374",
"M.	c #8B7C63",
"N.	c #867656",
"O.	c #746849",
"P.	c #67643D",
"Q.	c #5C6842",
"R.	c #949E8B",
"S.	c #A1AD99",
"T.	c #798088",
"U.	c #5E6577",
"V.	c #3D4260",
"W.	c #161A40",
"X.	c #272D53",
"Y.	c #394588",
"Z.	c #454F88",
"`.	c #7980A9",
" +	c #A4A8C4",
".+	c #9598B3",
"++	c #989BB2",
"@+	c #ADADC1",
"#+	c #C5BFC3",
"$+	c #C5BCA9",
"%+	c #A08F74",
"&+	c #827956",
"*+	c #717962",
"=+	c #7D8A83",
"-+	c #48564A",
";+	c #2A304D",
">+	c #33375F",
",+	c #151846",
"'+	c #131643",
")+	c #010202",
"!+	c #333961",
"~+	c #3D4893",
"{+	c #41498E",
"]+	c #454C87",
"^+	c #7C82A5",
"/+	c #B7BCD1",
"(+	c #9FA0B7",
"_+	c #A8A5BA",
":+	c #9E9DA4",
"<+	c #7B7D6C",
"[+	c #80785A",
"}+	c #847D57",
"|+	c #393A42",
"1+	c #0E1334",
"2+	c #080F2D",
"3+	c #223149",
"4+	c #121B3F",
"5+	c #191D43",
"6+	c #23274D",
"7+	c #010100",
"8+	c #2C3051",
"9+	c #6871B2",
"0+	c #454D8F",
"a+	c #363C7E",
"b+	c #65699C",
"c+	c #6D749B",
"d+	c #43456E",
"e+	c #8F90A6",
"f+	c #A5A3AD",
"g+	c #818280",
"h+	c #696C5A",
"i+	c #838261",
"j+	c #303047",
"k+	c #1D1D42",
"l+	c #1C1E40",
"m+	c #222E4B",
"n+	c #26304A",
"o+	c #2B2F50",
"p+	c #5F6484",
"q+	c #020101",
"r+	c #161830",
"s+	c #95A3CE",
"t+	c #8E9AC6",
"u+	c #3E4682",
"v+	c #333778",
"w+	c #292F6B",
"x+	c #2F3169",
"y+	c #4E5174",
"z+	c #76748C",
"A+	c #767586",
"B+	c #454C51",
"C+	c #49533C",
"D+	c #58655E",
"E+	c #788480",
"F+	c #9BA1A8",
"G+	c #35345B",
"H+	c #272755",
"I+	c #303456",
"J+	c #4B506D",
"K+	c #000105",
"L+	c #040512",
"M+	c #505A9A",
"N+	c #6670AF",
"O+	c #535C9B",
"P+	c #454E8B",
"Q+	c #4F588B",
"R+	c #525786",
"S+	c #5B5D89",
"T+	c #4E4E74",
"U+	c #474868",
"V+	c #41416A",
"W+	c #1B1D46",
"X+	c #363E5C",
"Y+	c #39425A",
"Z+	c #6A747B",
"`+	c #5F6777",
" @	c #484F66",
".@	c #6C757E",
"+@	c #5C656F",
"@@	c #020202",
"#@	c #363968",
"$@	c #46519D",
"%@	c #3F4C92",
"&@	c #394684",
"*@	c #6C74A7",
"=@	c #6E73A3",
"-@	c #5A5E87",
";@	c #60648C",
">@	c #323564",
",@	c #2F305C",
"'@	c #4A4D73",
")@	c #1B214A",
"!@	c #2A3265",
"~@	c #38416D",
"{@	c #566080",
"]@	c #6B7682",
"^@	c #7F888F",
"/@	c #717985",
"(@	c #0A0C15",
"_@	c #5666A1",
":@	c #3A4997",
"<@	c #3D478D",
"[@	c #4A5292",
"}@	c #4C528A",
"|@	c #4F5383",
"1@	c #5B608B",
"2@	c #545887",
"3@	c #63678F",
"4@	c #7A80A3",
"5@	c #62698E",
"6@	c #676F95",
"7@	c #6B719A",
"8@	c #6A7092",
"9@	c #8D97A7",
"0@	c #8B93A5",
"a@	c #5C6275",
"b@	c #282E45",
"c@	c #5B67AD",
"d@	c #3B4898",
"e@	c #3F4B92",
"f@	c #464E93",
"g@	c #404587",
"h@	c #4C518D",
"i@	c #4B5188",
"j@	c #515889",
"k@	c #7A82AB",
"l@	c #5C6489",
"m@	c #757E9D",
"n@	c #8089AB",
"o@	c #8F98B3",
"p@	c #6B7B85",
"q@	c #31404C",
"r@	c #2B3548",
"s@	c #010203",
"t@	c #393E5E",
"u@	c #5767A7",
"v@	c #3F4E97",
"w@	c #3F4B91",
"x@	c #454E91",
"y@	c #394280",
"z@	c #434D86",
"A@	c #576091",
"B@	c #7D85AD",
"C@	c #757DA2",
"D@	c #8992B2",
"E@	c #A0A9C7",
"F@	c #8891AE",
"G@	c #646D88",
"H@	c #474F63",
"I@	c #141925",
"J@	c #010105",
"K@	c #282E42",
"L@	c #717EAF",
"M@	c #5F6BA9",
"N@	c #475397",
"O@	c #5E69A4",
"P@	c #6E78AA",
"Q@	c #8F98C1",
"R@	c #858FB5",
"S@	c #7079A7",
"T@	c #727AA6",
"U@	c #8891B7",
"V@	c #767FA7",
"W@	c #585B7F",
"X@	c #1B192C",
"Y@	c #010103",
"Z@	c #0C0E1B",
"`@	c #3E4669",
" #	c #4D5A92",
".#	c #5A64A6",
"+#	c #646DAB",
"@#	c #545D9B",
"##	c #50589A",
"$#	c #525C96",
"%#	c #6B76A7",
"&#	c #677094",
"*#	c #292C40",
"=#	c #070710",
"-#	c #010106",
";#	c #000003",
">#	c #020005",
",#	c #060512",
"'#	c #1C1F33",
")#	c #333853",
"!#	c #3A3F63",
"~#	c #34365B",
"{#	c #171B2D",
"]#	c #03050F",
"^#	c #020000",
"/#	c #010101",
". . . . . . + + @ @ @ @ # @ @ . @ @ . . . $ % $ ",
". . . . . . & * = - ; > , ' ) ! ~ { . . ] $ % $ ",
". . . . . ~ ^ / ( _ : < [ } | 1 2 3 @ . ] $ % $ ",
". . . 4 5 6 7 8 9 0 a b c d e f g h i j ] $ % $ ",
". . . k l m n o p q r s t u v w x y z A ] $ % $ ",
". 4 B C D E F G H I J K L M N O P Q R S ] $ % $ ",
"T U V W X Y Z `  ...+.@.#.$.%.&.*.=.-.;.] $ % $ ",
"~ >.,.'.).!.~.{.].^./.(._.:.<.[.}.|.1.2.] $ % $ ",
"~ 3.4.5.6.7.8.9.0.a.b.c.d.e.f.g.h.i.j.k.] $ % $ ",
"T l.m.n.o.p.q.r.s.t.u.v.w.x.y.z.A.B.C.D.] $ % $ ",
"B E.F.G.H.I.J.K.L.M.N.O.P.Q.R.S.T.U.V.W.] $ % $ ",
"B X.Y.Z.`. +.+++@+#+$+%+&+*+=+-+;+>+,+'+] $ % $ ",
")+!+~+{+]+^+/+(+_+:+<+[+}+|+1+2+3+4+5+6+] $ % $ ",
"7+8+9+0+a+b+c+d+e+f+g+h+i+j+k+l+m+n+o+p+] $ % $ ",
"q+r+s+t+u+v+w+x+y+z+A+B+C+D+E+F+G+H+I+J+] $ % $ ",
"K+L+M+N+O+P+Q+R+S+T+U+V+W+X+Y+Z+`+ @.@+@] $ % $ ",
"T @@#@$@%@&@*@=@-@;@>@,@'@)@!@~@{@]@^@/@] $ % $ ",
"~ B (@_@:@<@[@}@|@1@2@3@4@5@6@7@8@9@0@a@] $ % $ ",
". . ~ b@c@d@e@f@g@h@i@j@k@l@m@n@o@p@q@r@] $ % $ ",
". . . s@t@u@v@w@x@y@z@A@B@C@D@E@F@G@H@I@] $ % $ ",
". . . { J@K@L@M@N@O@P@Q@R@S@T@U@V@W@X@Y@] $ % $ ",
". . . . . B Z@`@ #.#+#@###$#%#&#*#=#-#;#] $ % $ ",
". . . . . . . >#,#'#)#!#~#y {#]#+ 4 . @ ] $ % $ ",
". . . . . . . 4 ^#4 /#k + @ /#7+. @ . . . $ % $ "};
