/* XPM */
static const char * earth1_xpm[] = {
"24 24 366 2",
"  	c None",
". 	c #000000",
"+ 	c #2AFF00",
"@ 	c #FFFFFF",
"# 	c #000002",
"$ 	c #000001",
"% 	c #010001",
"& 	c #1B8806",
"* 	c #000200",
"= 	c #000202",
"- 	c #010207",
"; 	c #0A0B16",
"> 	c #161722",
", 	c #1B1C27",
"' 	c #191A25",
") 	c #11131E",
"! 	c #080911",
"~ 	c #010205",
"{ 	c #000101",
"] 	c #000100",
"^ 	c #030709",
"/ 	c #191D28",
"( 	c #424558",
"_ 	c #585A70",
": 	c #5C5E73",
"< 	c #57596E",
"[ 	c #4E5065",
"} 	c #42455A",
"| 	c #33364C",
"1 	c #232639",
"2 	c #141821",
"3 	c #030508",
"4 	c #101424",
"5 	c #414D65",
"6 	c #636B83",
"7 	c #71778E",
"8 	c #7A7F95",
"9 	c #7F8499",
"0 	c #7F8396",
"a 	c #75788A",
"b 	c #52596D",
"c 	c #4B5165",
"d 	c #43485B",
"e 	c #2B3043",
"f 	c #171B2F",
"g 	c #0A0B18",
"h 	c #010004",
"i 	c #60658B",
"j 	c #7984A7",
"k 	c #8790A5",
"l 	c #89919C",
"m 	c #838997",
"n 	c #6A707D",
"o 	c #797E88",
"p 	c #7F838C",
"q 	c #686F7F",
"r 	c #444A61",
"s 	c #363A53",
"t 	c #3F445D",
"u 	c #262A45",
"v 	c #181C32",
"w 	c #0C0F18",
"x 	c #7A82A9",
"y 	c #747F9E",
"z 	c #828AA1",
"A 	c #9BA2AF",
"B 	c #858D93",
"C 	c #81878E",
"D 	c #7B8087",
"E 	c #5C606D",
"F 	c #4E546F",
"G 	c #404663",
"H 	c #414758",
"I 	c #555C6A",
"J 	c #40485A",
"K 	c #1C233A",
"L 	c #1C1F37",
"M 	c #0A0A16",
"N 	c #646F9A",
"O 	c #8388A7",
"P 	c #969BB9",
"Q 	c #9096AB",
"R 	c #828B8D",
"S 	c #A5AAAA",
"T 	c #ABAEAB",
"U 	c #646B64",
"V 	c #3D4749",
"W 	c #434B5F",
"X 	c #515A61",
"Y 	c #4A5455",
"Z 	c #2F394F",
"` 	c #141C39",
" .	c #1A1E39",
"..	c #161832",
"+.	c #020409",
"@.	c #454F84",
"#.	c #8A8FAD",
"$.	c #73779B",
"%.	c #7F839F",
"&.	c #8D9292",
"*.	c #9D9F97",
"=.	c #6E7062",
"-.	c #5D6554",
";.	c #4E5A4C",
">.	c #657070",
",.	c #6C786F",
"'.	c #414B4A",
").	c #29314C",
"!.	c #141B3D",
"~.	c #202442",
"{.	c #11122D",
"].	c #0B0D1A",
"^.	c #000004",
"/.	c #8992B7",
"(.	c #888CAC",
"_.	c #A3A8C1",
":.	c #B5BBC9",
"<.	c #A7A9A3",
"[.	c #757361",
"}.	c #636549",
"|.	c #54603C",
"1.	c #4C5B43",
"2.	c #7C8785",
"3.	c #697273",
"4.	c #454E4F",
"5.	c #141B3B",
"6.	c #282E51",
"7.	c #282B4C",
"8.	c #121531",
"9.	c #0F1226",
"0.	c #020309",
"a.	c #B2B4CD",
"b.	c #9296AF",
"c.	c #9498B2",
"d.	c #515461",
"e.	c #767155",
"f.	c #756B4B",
"g.	c #716D4E",
"h.	c #4F5831",
"i.	c #3F512C",
"j.	c #58654F",
"k.	c #99A29F",
"l.	c #A7B0AE",
"m.	c #636785",
"n.	c #505670",
"o.	c #313656",
"p.	c #101636",
"q.	c #0E142B",
"r.	c #05090E",
"s.	c #A4A7BF",
"t.	c #A4A8BF",
"u.	c #8D91AD",
"v.	c #646374",
"w.	c #8B7C63",
"x.	c #867656",
"y.	c #746849",
"z.	c #67643D",
"A.	c #5C6842",
"B.	c #949E8B",
"C.	c #A1AD99",
"D.	c #798088",
"E.	c #5E6577",
"F.	c #3D4260",
"G.	c #161A40",
"H.	c #151B3C",
"I.	c #111632",
"J.	c #0A0D16",
"K.	c #A4A8C4",
"L.	c #9598B3",
"M.	c #989BB2",
"N.	c #ADADC1",
"O.	c #C5BFC3",
"P.	c #C5BCA9",
"Q.	c #A08F74",
"R.	c #827956",
"S.	c #717962",
"T.	c #7D8A83",
"U.	c #48564A",
"V.	c #2A304D",
"W.	c #33375F",
"X.	c #151846",
"Y.	c #131643",
"Z.	c #181D41",
"`.	c #141938",
" +	c #0B0E1A",
".+	c #7C82A5",
"++	c #B7BCD1",
"@+	c #9FA0B7",
"#+	c #A8A5BA",
"$+	c #9E9DA4",
"%+	c #7B7D6C",
"&+	c #80785A",
"*+	c #847D57",
"=+	c #393A42",
"-+	c #0E1334",
";+	c #080F2D",
">+	c #223149",
",+	c #121B3F",
"'+	c #191D43",
")+	c #23274D",
"!+	c #1E2346",
"~+	c #141939",
"{+	c #0F121F",
"]+	c #65699C",
"^+	c #6D749B",
"/+	c #43456E",
"(+	c #8F90A6",
"_+	c #A5A3AD",
":+	c #818280",
"<+	c #696C5A",
"[+	c #838261",
"}+	c #303047",
"|+	c #1D1D42",
"1+	c #1C1E40",
"2+	c #222E4B",
"3+	c #26304A",
"4+	c #2B2F50",
"5+	c #5F6484",
"6+	c #383D5F",
"7+	c #161B3B",
"8+	c #0E101D",
"9+	c #333778",
"0+	c #292F6B",
"a+	c #2F3169",
"b+	c #4E5174",
"c+	c #76748C",
"d+	c #767586",
"e+	c #454C51",
"f+	c #49533C",
"g+	c #58655E",
"h+	c #788480",
"i+	c #9BA1A8",
"j+	c #35345B",
"k+	c #272755",
"l+	c #303456",
"m+	c #4B506D",
"n+	c #2C3451",
"o+	c #171D3A",
"p+	c #050713",
"q+	c #454E8B",
"r+	c #4F588B",
"s+	c #525786",
"t+	c #5B5D89",
"u+	c #4E4E74",
"v+	c #474868",
"w+	c #41416A",
"x+	c #1B1D46",
"y+	c #363E5C",
"z+	c #39425A",
"A+	c #6A747B",
"B+	c #5F6777",
"C+	c #484F66",
"D+	c #6C757E",
"E+	c #5C656F",
"F+	c #394453",
"G+	c #1C2433",
"H+	c #020306",
"I+	c #394684",
"J+	c #6C74A7",
"K+	c #6E73A3",
"L+	c #5A5E87",
"M+	c #60648C",
"N+	c #323564",
"O+	c #2F305C",
"P+	c #4A4D73",
"Q+	c #1B214A",
"R+	c #2A3265",
"S+	c #38416D",
"T+	c #566080",
"U+	c #6B7682",
"V+	c #7F888F",
"W+	c #717985",
"X+	c #343D4C",
"Y+	c #11161D",
"Z+	c #010000",
"`+	c #3D478D",
" @	c #4A5292",
".@	c #4C528A",
"+@	c #4F5383",
"@@	c #5B608B",
"#@	c #545887",
"$@	c #63678F",
"%@	c #7A80A3",
"&@	c #62698E",
"*@	c #676F95",
"=@	c #6B719A",
"-@	c #6A7092",
";@	c #8D97A7",
">@	c #8B93A5",
",@	c #5C6275",
"'@	c #232637",
")@	c #04040B",
"!@	c #3B4898",
"~@	c #3F4B92",
"{@	c #464E93",
"]@	c #404587",
"^@	c #4C518D",
"/@	c #4B5188",
"(@	c #515889",
"_@	c #7A82AB",
":@	c #5C6489",
"<@	c #757E9D",
"[@	c #8089AB",
"}@	c #8F98B3",
"|@	c #6B7B85",
"1@	c #31404C",
"2@	c #2B3548",
"3@	c #0D0F1B",
"4@	c #010103",
"5@	c #5767A7",
"6@	c #3F4E97",
"7@	c #3F4B91",
"8@	c #454E91",
"9@	c #394280",
"0@	c #434D86",
"a@	c #576091",
"b@	c #7D85AD",
"c@	c #757DA2",
"d@	c #8992B2",
"e@	c #A0A9C7",
"f@	c #8891AE",
"g@	c #646D88",
"h@	c #474F63",
"i@	c #141925",
"j@	c #000104",
"k@	c #282E42",
"l@	c #717EAF",
"m@	c #5F6BA9",
"n@	c #475397",
"o@	c #5E69A4",
"p@	c #6E78AA",
"q@	c #8F98C1",
"r@	c #858FB5",
"s@	c #7079A7",
"t@	c #727AA6",
"u@	c #8891B7",
"v@	c #767FA7",
"w@	c #585B7F",
"x@	c #1B192C",
"y@	c #010102",
"z@	c #0C0E1B",
"A@	c #3E4669",
"B@	c #4D5A92",
"C@	c #5A64A6",
"D@	c #646DAB",
"E@	c #545D9B",
"F@	c #50589A",
"G@	c #525C96",
"H@	c #6B76A7",
"I@	c #677094",
"J@	c #292C40",
"K@	c #070710",
"L@	c #010106",
"M@	c #000003",
"N@	c #020005",
"O@	c #060512",
"P@	c #1C1F33",
"Q@	c #333853",
"R@	c #3A3F63",
"S@	c #34365B",
"T@	c #171B2D",
"U@	c #03050F",
"V@	c #020000",
"W@	c #010101",
"X@	c #000103",
"Y@	c #010100",
". + @ + . . # # $ $ $ $ % $ $ . $ $ . . . . . . ",
"& + @ + & . * = - ; > , ' ) ! ~ { ] . . . . . . ",
"& + @ + & { ^ / ( _ : < [ } | 1 2 3 $ . . . . . ",
"& + @ + & 4 5 6 7 8 9 0 a b c d e f g h . . . . ",
"& + @ + & i j k l m n o p q r s t u v w # . . . ",
"& + @ + & x y z A B C D E F G H I J K L M $ . . ",
"& + @ + & N O P Q R S T U V W X Y Z `  ...+.$ # ",
"& + @ + & @.#.$.%.&.*.=.-.;.>.,.'.).!.~.{.].^.% ",
"& + @ + & /.(._.:.<.[.}.|.1.2.3.4.5.6.7.8.9.0.. ",
"& + @ + & a.b.c.d.e.f.g.h.i.j.k.l.m.n.o.p.q.r.] ",
"& + @ + & s.t.u.v.w.x.y.z.A.B.C.D.E.F.G.H.I.J.] ",
"& + @ + & K.L.M.N.O.P.Q.R.S.T.U.V.W.X.Y.Z.`. +{ ",
"& + @ + & .+++@+#+$+%+&+*+=+-+;+>+,+'+)+!+~+{+{ ",
"& + @ + & ]+^+/+(+_+:+<+[+}+|+1+2+3+4+5+6+7+8+{ ",
"& + @ + & 9+0+a+b+c+d+e+f+g+h+i+j+k+l+m+n+o+p+{ ",
"& + @ + & q+r+s+t+u+v+w+x+y+z+A+B+C+D+E+F+G+H+. ",
"& + @ + & I+J+K+L+M+N+O+P+Q+R+S+T+U+V+W+X+Y+Z+Z+",
"& + @ + & `+ @.@+@@@#@$@%@&@*@=@-@;@>@,@'@)@% % ",
"& + @ + & !@~@{@]@^@/@(@_@:@<@[@}@|@1@2@3@4@] . ",
"& + @ + & 5@6@7@8@9@0@a@b@c@d@e@f@g@h@i@j@. . . ",
"& + @ + & k@l@m@n@o@p@q@r@s@t@u@v@w@x@4@. . $ . ",
"& + @ + & y@z@A@B@C@D@E@F@G@H@I@J@K@L@M@$ . . . ",
"& + @ + & . . N@O@P@Q@R@S@u T@U@# Z+. $ $ . . . ",
". + @ + . . . Z+V@Z+W@X@# $ W@Y@. $ . . . . . . "};
