/* XPM */
static const char * earthd_xpm[] = {
"24 24 146 2",
"  	g None",
". 	g #242424",
"+ 	g #252525",
"@ 	g #262626",
"# 	g #303030",
"$ 	g #3B3B3B",
"% 	g #404040",
"& 	g #3E3E3E",
"* 	g #373737",
"= 	g #2E2E2E",
"- 	g #2A2A2A",
"; 	g #656565",
"> 	g #7A7A7A",
", 	g #7D7D7D",
"' 	g #797979",
") 	g #717171",
"! 	g #595959",
"~ 	g #494949",
"{ 	g #292929",
"] 	g #383838",
"^ 	g #6B6B6B",
"/ 	g #878787",
"( 	g #939393",
"_ 	g #9A9A9A",
": 	g #9E9E9E",
"< 	g #9D9D9D",
"[ 	g #949494",
"} 	g #777777",
"| 	g #707070",
"1 	g #686868",
"2 	g #535353",
"3 	g #3F3F3F",
"4 	g #474747",
"5 	g #858585",
"6 	g #A8A8A8",
"7 	g #A1A1A1",
"8 	g #8B8B8B",
"9 	g #989898",
"0 	g #9C9C9C",
"a 	g #6A6A6A",
"b 	g #5D5D5D",
"c 	g #4E4E4E",
"d 	g #333333",
"e 	g #424242",
"f 	g #999999",
"g 	g #A2A2A2",
"h 	g #B6B6B6",
"i 	g #A3A3A3",
"j 	g #9F9F9F",
"k 	g #747474",
"l 	g #666666",
"m 	g #676767",
"n 	g #454545",
"o 	g #434343",
"p 	g #2F2F2F",
"q 	g #2C2C2C",
"r 	g #6E6E6E",
"s 	g #929292",
"t 	g #B3B3B3",
"u 	g #ADADAD",
"v 	g #BCBCBC",
"w 	g #C0C0C0",
"x 	g #646464",
"y 	g #767676",
"z 	g #3D3D3D",
"A 	g #282828",
"B 	g #484848",
"C 	g #7F7F7F",
"D 	g #5F5F5F",
"E 	g #959595",
"F 	g #B4B4B4",
"G 	g #8A8A8A",
"H 	g #7E7E7E",
"I 	g #898989",
"J 	g #8E8E8E",
"K 	g #545454",
"L 	g #323232",
"M 	g #AAAAAA",
"N 	g #A6A6A6",
"O 	g #BDBDBD",
"P 	g #CCCCCC",
"Q 	g #8D8D8D",
"R 	g #737373",
"S 	g #525252",
"T 	g #505050",
"U 	g #3A3A3A",
"V 	g #272727",
"W 	g #6C6C6C",
"X 	g #818181",
"Y 	g #C7C7C7",
"Z 	g #AEAEAE",
"` 	g #B0B0B0",
" .	g #868686",
"..	g #7C7C7C",
"+.	g #757575",
"@.	g #464646",
"#.	g #787878",
"$.	g #828282",
"%.	g #AFAFAF",
"&.	g #BBBBBB",
"*.	g #313131",
"=.	g #515151",
"-.	g #9B9B9B",
";.	g #BEBEBE",
">.	g #C2C2C2",
",.	g #D0D0D0",
"'.	g #CDCDCD",
").	g #8F8F8F",
"!.	g #6F6F6F",
"~.	g #5B5B5B",
"{.	g #6D6D6D",
"].	g #B7B7B7",
"^.	g #969696",
"/.	g #5C5C5C",
"(.	g #343434",
"_.	g #4C4C4C",
":.	g #909090",
"<.	g #616161",
"[.	g #919191",
"}.	g #A9A9A9",
"|.	g #B9B9B9",
"1.	g #555555",
"2.	g #838383",
"3.	g #353535",
"4.	g #B8B8B8",
"5.	g #B1B1B1",
"6.	g #696969",
"7.	g #5E5E5E",
"8.	g #565656",
"9.	g #585858",
"0.	g #B5B5B5",
"a.	g #5A5A5A",
"b.	g #414141",
"c.	g #7B7B7B",
"d.	g #626262",
"e.	g #808080",
"f.	g #848484",
"g.	g #636363",
"h.	g #8C8C8C",
"i.	g #ACACAC",
"j.	g #727272",
"k.	g #606060",
"l.	g #3C3C3C",
"m.	g #888888",
"n.	g #4F4F4F",
"o.	g #2B2B2B",
". . . . . . . . . . . . . . . . . . . . . . . . ",
". . . . . . + + @ # $ % & * = @ + + . . . . . . ",
". . . . . + - % ; > , ' ) ; ! ~ $ { . . . . . . ",
". . . . @ ] ^ / ( _ : < [ } | 1 2 3 # + . . . . ",
". . . + 4 5 : 6 6 7 8 9 0 8 a b ; c % d . . . . ",
". . + e ( < f g h i j f , k l l ' m n o p . . . ",
"+ + q r s 8 g t u 7 v w 5 x a y | ! % e z A . . ",
"+ @ B C D ) 6 E : 6 F G H k I J m K % B ] L . . ",
"+ { D m 1 M N O P v Q H y R 0 8 a 3 S T U * V . ",
"+ ] W C X Y Z ` k 8  ./ | m ..F w  .+.! $ ] q + ",
"+ @.#., E O O M $.9 s 5 H , %.&.f $.x % % $ *.+ ",
"+ =.1 ) -.;.` t >.,.'.6 ( ).: !.2 ~.3 z e & L + ",
"@ b W {.!.< '.].v F ^.s ^./.] (.=.3 e _.4 & * + ",
"+ K :.) <.I [.1 }.|._  .f 1.o o T S 2 2.D % 3.+ ",
"+ z 4.5.6.7.8.9.R s s 6.W , _ 0.a.c 9.) 8.b.q + ",
"+ - c.)., ) ' ' H ) a ; o D d.Q 2.r J e.d.n V . ",
"+ @ 7.k !.1 s s H f.a.8.!.@.8.g.H ).j ( b ] . . ",
"+ + # 5 W ^ +.k +.e.>  .-./ h.).Q i.M C ~ { . . ",
". . + =./ W r j.a k k ' < 2.f g Z s 7.8.(.+ + . ",
". . . @ k. .) r j.; !.e.j f M ;.6 I r l.+ . . . ",
". . . + + T f G +.m.E ` 6 ^.^.}._ c.3 + . . . . ",
". . . . . + d l > 5 h.H > ..( h.n.q @ . . . . . ",
". . . . . . . + o.e a.<.a.c 3 { . . . . . . . . ",
". . . . . . . . + . + + . . + + . . . . . . . . "};
