/* XPM */
static const char * loupe_m_xpm[] = {
"24 24 59 1",
" 	c None",
".	c #404040",
"+	c #434343",
"@	c #444444",
"#	c #6A6A6A",
"$	c #939393",
"%	c #A6A6A6",
"&	c #838383",
"*	c #575757",
"=	c #4B4B4B",
"-	c #F3F3F3",
";	c #FBFBFB",
">	c #FDFDFD",
",	c #F9F9F9",
"'	c #898989",
")	c #424242",
"!	c #FFFFFF",
"~	c #414141",
"{	c #464646",
"]	c #3C3C3C",
"^	c #383838",
"/	c #3F3F3F",
"(	c #3E3E3E",
"_	c #2D2D2D",
":	c #3A3A3A",
"<	c #303030",
"[	c #545454",
"}	c #6D6D6D",
"|	c #373737",
"1	c #707070",
"2	c #6C6C6C",
"3	c #4F4F4F",
"4	c #6E6E6E",
"5	c #7E7E7E",
"6	c #7B7B7B",
"7	c #696969",
"8	c #4C4C4C",
"9	c #363636",
"0	c #858585",
"a	c #909090",
"b	c #777777",
"c	c #8C8C8C",
"d	c #A1A1A1",
"e	c #787878",
"f	c #232323",
"g	c #4D4D4D",
"h	c #888888",
"i	c #999999",
"j	c #727272",
"k	c #292929",
"l	c #4E4E4E",
"m	c #8B8B8B",
"n	c #636363",
"o	c #474747",
"p	c #757575",
"q	c #2F2F2F",
"r	c #393939",
"s	c #313131",
"t	c #262626",
"                        ",
"        .+@             ",
"      .#$ %&*+          ",
"     = -;>>, ')         ",
"    . ;!!!!!>  ~        ",
"   .            {       ",
"                .       ",
"                ]       ",
"  .   ^^^^^^^^  ^       ",
"  /   ^^^^^^^^  (       ",
"                .       ",
"   _            :       ",
"   <           [        ",
"    :         }|        ",
"     ~1     %231        ",
"       345678 90ab      ",
"               @cde     ",
"               fghij    ",
"                kl5mn   ",
"                 _o4pg  ",
"                  qr*[  ",
"                   qs|t ",
"                     <_ ",
"                        "};
