/* XPM */
static const char* target_xpm[] = {
"24 24 4 1",
" 	c #FF0000",
".	c #FFFFFF",
"+	c #0000FF",
"@	c #808080",
"       .+..@..@..       ",
"       .+..@..@..       ",
"  @..@..+..@..@..@..+.  ",
"  @@@@@@+@@@@@@@@@@@+@  ",
"  @..@..+..@..@..@..+.  ",
"  @..@..+..@..@..@..+.  ",
"  @@@@@@+@@@@@@@@@@@+@  ",
"..@..@..+..  .@..@..+..@",
"..@..@..+..  .@..@..+..@",
"+++++++++++  +++++++++++",
"..@..@..+..  .@..@..+..@",
"..@..@.          @..+..@",
"@@@@@@@          @@@+@@@",
"..@..@..+..  .@..@..+..@",
"..@..@..+..  .@..@..+..@",
"@@@@@@@@+@@  @@@@@@@+@@@",
"..@..@..+..  .@..@..+..@",
"  @..@..+..@..@..@..+.  ",
"  @@@@@@+@@@@@@@@@@@+@  ",
"  @..@..+..@..@..@..+.  ",
"  @..@..+..@..@..@..+.  ",
"  ++++++++++++++++++++  ",
"       .+..@..@..       ",
"       .+..@..@..       "};
